<mxfile host="Electron" agent="Mozilla/5.0 (Macintosh; Intel Mac OS X 10_15_7) AppleWebKit/537.36 (KHTML, like Gecko) draw.io/24.7.8 Chrome/128.0.6613.36 Electron/32.0.1 Safari/537.36" version="24.7.8">
  <diagram id="ZyAAqt-jdHNnRbr1MBg_" name="Page-1">
    <mxGraphModel dx="934" dy="738" grid="1" gridSize="10" guides="1" tooltips="1" connect="1" arrows="1" fold="1" page="1" pageScale="1" pageWidth="827" pageHeight="1169" math="0" shadow="0">
      <root>
        <mxCell id="0" />
        <mxCell id="1" parent="0" />
        <mxCell id="fksqTYaC6-66_M4w8a9K-1" value="" style="whiteSpace=wrap;html=1;fillColor=none;" vertex="1" parent="1">
          <mxGeometry x="140" y="40" width="460" height="680" as="geometry" />
        </mxCell>
        <mxCell id="fksqTYaC6-66_M4w8a9K-28" style="rounded=0;orthogonalLoop=1;jettySize=auto;html=1;exitX=1;exitY=0;exitDx=0;exitDy=0;entryX=0;entryY=0.5;entryDx=0;entryDy=0;dashed=1;" edge="1" parent="1" source="fksqTYaC6-66_M4w8a9K-2" target="fksqTYaC6-66_M4w8a9K-7">
          <mxGeometry relative="1" as="geometry" />
        </mxCell>
        <mxCell id="fksqTYaC6-66_M4w8a9K-2" value="Sign Up" style="ellipse;whiteSpace=wrap;html=1;" vertex="1" parent="1">
          <mxGeometry x="200" y="90" width="75" height="50" as="geometry" />
        </mxCell>
        <mxCell id="fksqTYaC6-66_M4w8a9K-29" style="rounded=0;orthogonalLoop=1;jettySize=auto;html=1;exitX=1;exitY=1;exitDx=0;exitDy=0;entryX=0;entryY=0.5;entryDx=0;entryDy=0;dashed=1;" edge="1" parent="1" source="fksqTYaC6-66_M4w8a9K-3" target="fksqTYaC6-66_M4w8a9K-8">
          <mxGeometry relative="1" as="geometry" />
        </mxCell>
        <mxCell id="fksqTYaC6-66_M4w8a9K-3" value="Log In" style="ellipse;whiteSpace=wrap;html=1;" vertex="1" parent="1">
          <mxGeometry x="200" y="170" width="75" height="50" as="geometry" />
        </mxCell>
        <mxCell id="fksqTYaC6-66_M4w8a9K-4" value="Official Recommendation" style="ellipse;whiteSpace=wrap;html=1;" vertex="1" parent="1">
          <mxGeometry x="177.5" y="280" width="120" height="80" as="geometry" />
        </mxCell>
        <mxCell id="fksqTYaC6-66_M4w8a9K-5" value="Customised Recommendation" style="ellipse;whiteSpace=wrap;html=1;" vertex="1" parent="1">
          <mxGeometry x="177.5" y="390" width="120" height="80" as="geometry" />
        </mxCell>
        <mxCell id="fksqTYaC6-66_M4w8a9K-36" style="rounded=0;orthogonalLoop=1;jettySize=auto;html=1;exitX=1;exitY=0;exitDx=0;exitDy=0;entryX=0;entryY=1;entryDx=0;entryDy=0;dashed=1;" edge="1" parent="1" source="fksqTYaC6-66_M4w8a9K-6" target="fksqTYaC6-66_M4w8a9K-13">
          <mxGeometry relative="1" as="geometry" />
        </mxCell>
        <mxCell id="fksqTYaC6-66_M4w8a9K-37" style="rounded=0;orthogonalLoop=1;jettySize=auto;html=1;exitX=1;exitY=1;exitDx=0;exitDy=0;entryX=0;entryY=0;entryDx=0;entryDy=0;dashed=1;" edge="1" parent="1" source="fksqTYaC6-66_M4w8a9K-6" target="fksqTYaC6-66_M4w8a9K-14">
          <mxGeometry relative="1" as="geometry" />
        </mxCell>
        <mxCell id="fksqTYaC6-66_M4w8a9K-6" value="Creating Posts" style="ellipse;whiteSpace=wrap;html=1;" vertex="1" parent="1">
          <mxGeometry x="188.75" y="510" width="97.5" height="65" as="geometry" />
        </mxCell>
        <mxCell id="fksqTYaC6-66_M4w8a9K-7" value="User Characteristics" style="ellipse;whiteSpace=wrap;html=1;" vertex="1" parent="1">
          <mxGeometry x="339" y="50" width="90" height="60" as="geometry" />
        </mxCell>
        <mxCell id="fksqTYaC6-66_M4w8a9K-8" value="Verify username and password" style="ellipse;whiteSpace=wrap;html=1;" vertex="1" parent="1">
          <mxGeometry x="331.5" y="200" width="105" height="70" as="geometry" />
        </mxCell>
        <mxCell id="fksqTYaC6-66_M4w8a9K-38" style="rounded=0;orthogonalLoop=1;jettySize=auto;html=1;exitX=1;exitY=0;exitDx=0;exitDy=0;entryX=0;entryY=1;entryDx=0;entryDy=0;dashed=1;" edge="1" parent="1" source="fksqTYaC6-66_M4w8a9K-9" target="fksqTYaC6-66_M4w8a9K-14">
          <mxGeometry relative="1" as="geometry" />
        </mxCell>
        <mxCell id="fksqTYaC6-66_M4w8a9K-9" value="AI Interaction" style="ellipse;whiteSpace=wrap;html=1;" vertex="1" parent="1">
          <mxGeometry x="188.75" y="620" width="97.5" height="65" as="geometry" />
        </mxCell>
        <mxCell id="fksqTYaC6-66_M4w8a9K-30" style="rounded=0;orthogonalLoop=1;jettySize=auto;html=1;exitX=0;exitY=0.5;exitDx=0;exitDy=0;entryX=1;entryY=1;entryDx=0;entryDy=0;dashed=1;" edge="1" parent="1" source="fksqTYaC6-66_M4w8a9K-10" target="fksqTYaC6-66_M4w8a9K-2">
          <mxGeometry relative="1" as="geometry" />
        </mxCell>
        <mxCell id="fksqTYaC6-66_M4w8a9K-31" style="rounded=0;orthogonalLoop=1;jettySize=auto;html=1;exitX=0;exitY=0.5;exitDx=0;exitDy=0;entryX=1;entryY=0;entryDx=0;entryDy=0;dashed=1;" edge="1" parent="1" source="fksqTYaC6-66_M4w8a9K-10" target="fksqTYaC6-66_M4w8a9K-3">
          <mxGeometry relative="1" as="geometry" />
        </mxCell>
        <mxCell id="fksqTYaC6-66_M4w8a9K-10" value="User Database" style="ellipse;whiteSpace=wrap;html=1;" vertex="1" parent="1">
          <mxGeometry x="480" y="120" width="90" height="60" as="geometry" />
        </mxCell>
        <mxCell id="fksqTYaC6-66_M4w8a9K-33" style="rounded=0;orthogonalLoop=1;jettySize=auto;html=1;exitX=0;exitY=0.5;exitDx=0;exitDy=0;entryX=1;entryY=0;entryDx=0;entryDy=0;dashed=1;" edge="1" parent="1" source="fksqTYaC6-66_M4w8a9K-11" target="fksqTYaC6-66_M4w8a9K-4">
          <mxGeometry relative="1" as="geometry" />
        </mxCell>
        <mxCell id="fksqTYaC6-66_M4w8a9K-34" style="rounded=0;orthogonalLoop=1;jettySize=auto;html=1;exitX=0;exitY=0.5;exitDx=0;exitDy=0;entryX=1;entryY=0;entryDx=0;entryDy=0;dashed=1;" edge="1" parent="1" source="fksqTYaC6-66_M4w8a9K-11" target="fksqTYaC6-66_M4w8a9K-5">
          <mxGeometry relative="1" as="geometry" />
        </mxCell>
        <mxCell id="fksqTYaC6-66_M4w8a9K-11" value="Item Database" style="ellipse;whiteSpace=wrap;html=1;" vertex="1" parent="1">
          <mxGeometry x="480" y="280" width="90" height="60" as="geometry" />
        </mxCell>
        <mxCell id="fksqTYaC6-66_M4w8a9K-35" style="rounded=0;orthogonalLoop=1;jettySize=auto;html=1;exitX=0;exitY=0.5;exitDx=0;exitDy=0;entryX=1;entryY=1;entryDx=0;entryDy=0;dashed=1;" edge="1" parent="1" source="fksqTYaC6-66_M4w8a9K-12" target="fksqTYaC6-66_M4w8a9K-5">
          <mxGeometry relative="1" as="geometry" />
        </mxCell>
        <mxCell id="fksqTYaC6-66_M4w8a9K-12" value="Recommendation Model" style="ellipse;whiteSpace=wrap;html=1;" vertex="1" parent="1">
          <mxGeometry x="465" y="400" width="120" height="80" as="geometry" />
        </mxCell>
        <mxCell id="fksqTYaC6-66_M4w8a9K-13" value="Sharing Experience" style="ellipse;whiteSpace=wrap;html=1;" vertex="1" parent="1">
          <mxGeometry x="346.5" y="460" width="75" height="50" as="geometry" />
        </mxCell>
        <mxCell id="fksqTYaC6-66_M4w8a9K-14" value="Asking Questions" style="ellipse;whiteSpace=wrap;html=1;" vertex="1" parent="1">
          <mxGeometry x="350.25" y="570" width="67.5" height="45" as="geometry" />
        </mxCell>
        <mxCell id="fksqTYaC6-66_M4w8a9K-39" style="rounded=0;orthogonalLoop=1;jettySize=auto;html=1;exitX=0;exitY=0.5;exitDx=0;exitDy=0;entryX=1;entryY=0.5;entryDx=0;entryDy=0;dashed=1;" edge="1" parent="1" source="fksqTYaC6-66_M4w8a9K-15" target="fksqTYaC6-66_M4w8a9K-9">
          <mxGeometry relative="1" as="geometry" />
        </mxCell>
        <mxCell id="fksqTYaC6-66_M4w8a9K-15" value="LLM Model" style="ellipse;whiteSpace=wrap;html=1;" vertex="1" parent="1">
          <mxGeometry x="465" y="585" width="120" height="80" as="geometry" />
        </mxCell>
        <mxCell id="fksqTYaC6-66_M4w8a9K-18" style="rounded=0;orthogonalLoop=1;jettySize=auto;html=1;exitX=0.5;exitY=0.5;exitDx=0;exitDy=0;exitPerimeter=0;entryX=0;entryY=0.5;entryDx=0;entryDy=0;" edge="1" parent="1" source="fksqTYaC6-66_M4w8a9K-16" target="fksqTYaC6-66_M4w8a9K-2">
          <mxGeometry relative="1" as="geometry" />
        </mxCell>
        <mxCell id="fksqTYaC6-66_M4w8a9K-19" style="rounded=0;orthogonalLoop=1;jettySize=auto;html=1;exitX=0.5;exitY=0.5;exitDx=0;exitDy=0;exitPerimeter=0;entryX=0;entryY=0.5;entryDx=0;entryDy=0;" edge="1" parent="1" source="fksqTYaC6-66_M4w8a9K-16" target="fksqTYaC6-66_M4w8a9K-3">
          <mxGeometry relative="1" as="geometry" />
        </mxCell>
        <mxCell id="fksqTYaC6-66_M4w8a9K-20" style="rounded=0;orthogonalLoop=1;jettySize=auto;html=1;exitX=0.5;exitY=0.5;exitDx=0;exitDy=0;exitPerimeter=0;entryX=0;entryY=0.5;entryDx=0;entryDy=0;" edge="1" parent="1" source="fksqTYaC6-66_M4w8a9K-16" target="fksqTYaC6-66_M4w8a9K-4">
          <mxGeometry relative="1" as="geometry" />
        </mxCell>
        <mxCell id="fksqTYaC6-66_M4w8a9K-21" style="rounded=0;orthogonalLoop=1;jettySize=auto;html=1;exitX=0.5;exitY=0.5;exitDx=0;exitDy=0;exitPerimeter=0;entryX=0;entryY=0.5;entryDx=0;entryDy=0;" edge="1" parent="1" source="fksqTYaC6-66_M4w8a9K-16" target="fksqTYaC6-66_M4w8a9K-5">
          <mxGeometry relative="1" as="geometry" />
        </mxCell>
        <mxCell id="fksqTYaC6-66_M4w8a9K-22" style="rounded=0;orthogonalLoop=1;jettySize=auto;html=1;exitX=0.5;exitY=0.5;exitDx=0;exitDy=0;exitPerimeter=0;entryX=0;entryY=0.5;entryDx=0;entryDy=0;" edge="1" parent="1" source="fksqTYaC6-66_M4w8a9K-16" target="fksqTYaC6-66_M4w8a9K-6">
          <mxGeometry relative="1" as="geometry" />
        </mxCell>
        <mxCell id="fksqTYaC6-66_M4w8a9K-23" style="rounded=0;orthogonalLoop=1;jettySize=auto;html=1;exitX=0.5;exitY=0.5;exitDx=0;exitDy=0;exitPerimeter=0;entryX=0;entryY=0.5;entryDx=0;entryDy=0;" edge="1" parent="1" source="fksqTYaC6-66_M4w8a9K-16" target="fksqTYaC6-66_M4w8a9K-9">
          <mxGeometry relative="1" as="geometry" />
        </mxCell>
        <mxCell id="fksqTYaC6-66_M4w8a9K-16" value="&lt;b&gt;&lt;font style=&quot;font-size: 15px;&quot;&gt;User&lt;/font&gt;&lt;/b&gt;" style="shape=umlActor;verticalLabelPosition=bottom;verticalAlign=top;html=1;outlineConnect=0;strokeWidth=3;" vertex="1" parent="1">
          <mxGeometry x="30" y="260" width="60" height="120" as="geometry" />
        </mxCell>
        <mxCell id="fksqTYaC6-66_M4w8a9K-24" style="rounded=0;orthogonalLoop=1;jettySize=auto;html=1;exitX=0.5;exitY=0.5;exitDx=0;exitDy=0;exitPerimeter=0;entryX=1;entryY=0.5;entryDx=0;entryDy=0;" edge="1" parent="1" source="fksqTYaC6-66_M4w8a9K-17" target="fksqTYaC6-66_M4w8a9K-10">
          <mxGeometry relative="1" as="geometry" />
        </mxCell>
        <mxCell id="fksqTYaC6-66_M4w8a9K-25" style="rounded=0;orthogonalLoop=1;jettySize=auto;html=1;exitX=0.5;exitY=0.5;exitDx=0;exitDy=0;exitPerimeter=0;entryX=1;entryY=0.5;entryDx=0;entryDy=0;" edge="1" parent="1" source="fksqTYaC6-66_M4w8a9K-17" target="fksqTYaC6-66_M4w8a9K-11">
          <mxGeometry relative="1" as="geometry" />
        </mxCell>
        <mxCell id="fksqTYaC6-66_M4w8a9K-26" style="rounded=0;orthogonalLoop=1;jettySize=auto;html=1;exitX=0.5;exitY=0.5;exitDx=0;exitDy=0;exitPerimeter=0;entryX=1;entryY=0.5;entryDx=0;entryDy=0;" edge="1" parent="1" source="fksqTYaC6-66_M4w8a9K-17" target="fksqTYaC6-66_M4w8a9K-12">
          <mxGeometry relative="1" as="geometry" />
        </mxCell>
        <mxCell id="fksqTYaC6-66_M4w8a9K-27" style="rounded=0;orthogonalLoop=1;jettySize=auto;html=1;exitX=0.5;exitY=0.5;exitDx=0;exitDy=0;exitPerimeter=0;entryX=1;entryY=0.5;entryDx=0;entryDy=0;" edge="1" parent="1" source="fksqTYaC6-66_M4w8a9K-17" target="fksqTYaC6-66_M4w8a9K-15">
          <mxGeometry relative="1" as="geometry" />
        </mxCell>
        <mxCell id="fksqTYaC6-66_M4w8a9K-17" value="&lt;font style=&quot;font-size: 15px;&quot;&gt;&lt;b&gt;Admin&lt;/b&gt;&lt;/font&gt;" style="shape=umlActor;verticalLabelPosition=bottom;verticalAlign=top;html=1;outlineConnect=0;strokeWidth=3;" vertex="1" parent="1">
          <mxGeometry x="640" y="260" width="60" height="120" as="geometry" />
        </mxCell>
      </root>
    </mxGraphModel>
  </diagram>
</mxfile>
